<mxfile host="app.diagrams.net" agent="Mozilla/5.0 (Windows NT 10.0; Win64; x64) AppleWebKit/537.36 (KHTML, like Gecko) Chrome/131.0.0.0 Safari/537.36" version="26.0.4">
  <diagram name="Page-1" id="urvGlANXZleXgkYBX49S">
    <mxGraphModel dx="794" dy="412" grid="1" gridSize="10" guides="1" tooltips="1" connect="1" arrows="1" fold="1" page="1" pageScale="1" pageWidth="2300" pageHeight="2300" math="0" shadow="0">
      <root>
        <mxCell id="0" />
        <mxCell id="1" parent="0" />
        <mxCell id="tU78rsOKaXReI7qJYb4Z-1" value="Metrics collection" style="rounded=1;whiteSpace=wrap;html=1;" vertex="1" parent="1">
          <mxGeometry x="50" y="100" width="120" height="60" as="geometry" />
        </mxCell>
        <mxCell id="tU78rsOKaXReI7qJYb4Z-8" style="edgeStyle=orthogonalEdgeStyle;rounded=0;orthogonalLoop=1;jettySize=auto;html=1;entryX=0;entryY=0.5;entryDx=0;entryDy=0;" edge="1" parent="1" source="tU78rsOKaXReI7qJYb4Z-2" target="tU78rsOKaXReI7qJYb4Z-3">
          <mxGeometry relative="1" as="geometry" />
        </mxCell>
        <mxCell id="tU78rsOKaXReI7qJYb4Z-2" value="Transmission service" style="rounded=1;whiteSpace=wrap;html=1;" vertex="1" parent="1">
          <mxGeometry x="260" y="100" width="120" height="60" as="geometry" />
        </mxCell>
        <mxCell id="tU78rsOKaXReI7qJYb4Z-3" value="Analysis" style="rounded=1;whiteSpace=wrap;html=1;" vertex="1" parent="1">
          <mxGeometry x="470" y="100" width="120" height="60" as="geometry" />
        </mxCell>
        <mxCell id="tU78rsOKaXReI7qJYb4Z-10" style="edgeStyle=orthogonalEdgeStyle;rounded=0;orthogonalLoop=1;jettySize=auto;html=1;entryX=0;entryY=0.5;entryDx=0;entryDy=0;" edge="1" parent="1" source="tU78rsOKaXReI7qJYb4Z-4" target="tU78rsOKaXReI7qJYb4Z-5">
          <mxGeometry relative="1" as="geometry" />
        </mxCell>
        <mxCell id="tU78rsOKaXReI7qJYb4Z-4" value="Store" style="shape=cylinder3;whiteSpace=wrap;html=1;boundedLbl=1;backgroundOutline=1;size=15;" vertex="1" parent="1">
          <mxGeometry x="680" y="90" width="60" height="80" as="geometry" />
        </mxCell>
        <mxCell id="tU78rsOKaXReI7qJYb4Z-5" value="Visualization" style="rounded=1;whiteSpace=wrap;html=1;" vertex="1" parent="1">
          <mxGeometry x="830" y="20" width="120" height="60" as="geometry" />
        </mxCell>
        <mxCell id="tU78rsOKaXReI7qJYb4Z-7" style="edgeStyle=orthogonalEdgeStyle;rounded=0;orthogonalLoop=1;jettySize=auto;html=1;entryX=0.061;entryY=0.511;entryDx=0;entryDy=0;entryPerimeter=0;" edge="1" parent="1" source="tU78rsOKaXReI7qJYb4Z-1" target="tU78rsOKaXReI7qJYb4Z-2">
          <mxGeometry relative="1" as="geometry" />
        </mxCell>
        <mxCell id="tU78rsOKaXReI7qJYb4Z-9" style="edgeStyle=orthogonalEdgeStyle;rounded=0;orthogonalLoop=1;jettySize=auto;html=1;entryX=0.133;entryY=0.508;entryDx=0;entryDy=0;entryPerimeter=0;" edge="1" parent="1" source="tU78rsOKaXReI7qJYb4Z-3" target="tU78rsOKaXReI7qJYb4Z-4">
          <mxGeometry relative="1" as="geometry" />
        </mxCell>
        <mxCell id="tU78rsOKaXReI7qJYb4Z-12" value="Alarms" style="rounded=1;whiteSpace=wrap;html=1;" vertex="1" parent="1">
          <mxGeometry x="830" y="118" width="120" height="60" as="geometry" />
        </mxCell>
        <mxCell id="tU78rsOKaXReI7qJYb4Z-14" value="" style="endArrow=classic;html=1;rounded=0;entryX=0;entryY=0.25;entryDx=0;entryDy=0;" edge="1" parent="1" target="tU78rsOKaXReI7qJYb4Z-12">
          <mxGeometry width="50" height="50" relative="1" as="geometry">
            <mxPoint x="780" y="130" as="sourcePoint" />
            <mxPoint x="980" y="140" as="targetPoint" />
          </mxGeometry>
        </mxCell>
        <mxCell id="tU78rsOKaXReI7qJYb4Z-16" value="1" style="text;html=1;align=center;verticalAlign=middle;resizable=0;points=[];autosize=1;strokeColor=none;fillColor=none;" vertex="1" parent="1">
          <mxGeometry x="85" y="58" width="30" height="30" as="geometry" />
        </mxCell>
        <mxCell id="tU78rsOKaXReI7qJYb4Z-17" value="2" style="text;html=1;align=center;verticalAlign=middle;resizable=0;points=[];autosize=1;strokeColor=none;fillColor=none;" vertex="1" parent="1">
          <mxGeometry x="285" y="58" width="30" height="30" as="geometry" />
        </mxCell>
        <mxCell id="tU78rsOKaXReI7qJYb4Z-18" value="3" style="text;html=1;align=center;verticalAlign=middle;resizable=0;points=[];autosize=1;strokeColor=none;fillColor=none;" vertex="1" parent="1">
          <mxGeometry x="465" y="48" width="30" height="30" as="geometry" />
        </mxCell>
        <mxCell id="tU78rsOKaXReI7qJYb4Z-19" value="4" style="text;html=1;align=center;verticalAlign=middle;resizable=0;points=[];autosize=1;strokeColor=none;fillColor=none;" vertex="1" parent="1">
          <mxGeometry x="695" y="48" width="30" height="30" as="geometry" />
        </mxCell>
        <mxCell id="tU78rsOKaXReI7qJYb4Z-20" value="5" style="text;html=1;align=center;verticalAlign=middle;resizable=0;points=[];autosize=1;strokeColor=none;fillColor=none;" vertex="1" parent="1">
          <mxGeometry x="855" y="88" width="30" height="30" as="geometry" />
        </mxCell>
        <mxCell id="tU78rsOKaXReI7qJYb4Z-21" value="Metrics collection" style="text;html=1;align=center;verticalAlign=middle;resizable=0;points=[];autosize=1;strokeColor=none;fillColor=none;" vertex="1" parent="1">
          <mxGeometry x="20" y="268" width="120" height="30" as="geometry" />
        </mxCell>
        <mxCell id="tU78rsOKaXReI7qJYb4Z-22" value="Client 1" style="rounded=1;whiteSpace=wrap;html=1;" vertex="1" parent="1">
          <mxGeometry x="60" y="330" width="150" height="80" as="geometry" />
        </mxCell>
        <mxCell id="tU78rsOKaXReI7qJYb4Z-23" value="Prod server 1" style="text;html=1;align=center;verticalAlign=middle;resizable=0;points=[];autosize=1;strokeColor=none;fillColor=none;" vertex="1" parent="1">
          <mxGeometry x="50" y="298" width="100" height="30" as="geometry" />
        </mxCell>
        <mxCell id="tU78rsOKaXReI7qJYb4Z-27" value="Deamon metric agent" style="rounded=0;whiteSpace=wrap;html=1;" vertex="1" parent="1">
          <mxGeometry x="160" y="320" width="80" height="40" as="geometry" />
        </mxCell>
        <mxCell id="tU78rsOKaXReI7qJYb4Z-28" value="Retry" style="rounded=0;whiteSpace=wrap;html=1;" vertex="1" parent="1">
          <mxGeometry x="160" y="380" width="80" height="40" as="geometry" />
        </mxCell>
        <mxCell id="tU78rsOKaXReI7qJYb4Z-29" value="Client 2" style="rounded=1;whiteSpace=wrap;html=1;" vertex="1" parent="1">
          <mxGeometry x="60" y="480" width="140" height="80" as="geometry" />
        </mxCell>
        <mxCell id="tU78rsOKaXReI7qJYb4Z-30" value="Deamon metric agent" style="rounded=0;whiteSpace=wrap;html=1;" vertex="1" parent="1">
          <mxGeometry x="180" y="460" width="80" height="40" as="geometry" />
        </mxCell>
        <mxCell id="tU78rsOKaXReI7qJYb4Z-31" value="Retry" style="rounded=0;whiteSpace=wrap;html=1;" vertex="1" parent="1">
          <mxGeometry x="180" y="530" width="80" height="40" as="geometry" />
        </mxCell>
        <mxCell id="tU78rsOKaXReI7qJYb4Z-32" value="clinet 3" style="rounded=1;whiteSpace=wrap;html=1;" vertex="1" parent="1">
          <mxGeometry x="60" y="600" width="140" height="80" as="geometry" />
        </mxCell>
        <mxCell id="tU78rsOKaXReI7qJYb4Z-33" value="Deamon metric agent" style="rounded=0;whiteSpace=wrap;html=1;" vertex="1" parent="1">
          <mxGeometry x="170" y="590" width="80" height="40" as="geometry" />
        </mxCell>
        <mxCell id="tU78rsOKaXReI7qJYb4Z-34" value="Retry" style="rounded=0;whiteSpace=wrap;html=1;" vertex="1" parent="1">
          <mxGeometry x="170" y="650" width="80" height="40" as="geometry" />
        </mxCell>
        <mxCell id="tU78rsOKaXReI7qJYb4Z-35" value="To collect metrics , a background thread runs which is collection agent" style="text;html=1;align=center;verticalAlign=middle;resizable=0;points=[];autosize=1;strokeColor=none;fillColor=none;" vertex="1" parent="1">
          <mxGeometry x="295" y="340" width="400" height="30" as="geometry" />
        </mxCell>
        <mxCell id="tU78rsOKaXReI7qJYb4Z-36" value="There are 2 models to send the metrics" style="text;html=1;align=center;verticalAlign=middle;resizable=0;points=[];autosize=1;strokeColor=none;fillColor=none;" vertex="1" parent="1">
          <mxGeometry x="310" y="380" width="230" height="30" as="geometry" />
        </mxCell>
        <mxCell id="tU78rsOKaXReI7qJYb4Z-37" value="Push based or pull based" style="text;html=1;align=center;verticalAlign=middle;resizable=0;points=[];autosize=1;strokeColor=none;fillColor=none;" vertex="1" parent="1">
          <mxGeometry x="535" y="380" width="160" height="30" as="geometry" />
        </mxCell>
        <mxCell id="tU78rsOKaXReI7qJYb4Z-41" value="pros&#xa;----&#xa;low latency&#xa;&#xa;cons&#xa;---&#xa;retry functionality burden to retry data sending on all senders&#xa;chance of duplication if retry implemented.&#xa;&#xa;&#xa;Pull&#xa;&#xa;pros&#xa;&#xa;retry burden is shifted to collection service&#xa;&#xa;cons&#xa;---" style="text;whiteSpace=wrap;html=1;" vertex="1" parent="1">
          <mxGeometry x="340" y="420" width="360" height="280" as="geometry" />
        </mxCell>
        <mxCell id="tU78rsOKaXReI7qJYb4Z-42" value="Transmission service" style="text;html=1;align=center;verticalAlign=middle;resizable=0;points=[];autosize=1;strokeColor=none;fillColor=none;" vertex="1" parent="1">
          <mxGeometry y="728" width="140" height="30" as="geometry" />
        </mxCell>
        <mxCell id="tU78rsOKaXReI7qJYb4Z-43" value="2 options&amp;nbsp;" style="text;html=1;align=center;verticalAlign=middle;resizable=0;points=[];autosize=1;strokeColor=none;fillColor=none;" vertex="1" parent="1">
          <mxGeometry x="80" y="788" width="80" height="30" as="geometry" />
        </mxCell>
        <mxCell id="tU78rsOKaXReI7qJYb4Z-45" value="Analysis" style="text;html=1;align=center;verticalAlign=middle;resizable=0;points=[];autosize=1;strokeColor=none;fillColor=none;" vertex="1" parent="1">
          <mxGeometry x="5" y="908" width="70" height="30" as="geometry" />
        </mxCell>
        <mxCell id="tU78rsOKaXReI7qJYb4Z-47" value="Batch processing" style="text;html=1;align=center;verticalAlign=middle;resizable=0;points=[];autosize=1;strokeColor=none;fillColor=none;" vertex="1" parent="1">
          <mxGeometry x="120" y="978" width="120" height="30" as="geometry" />
        </mxCell>
        <mxCell id="tU78rsOKaXReI7qJYb4Z-48" value="near realtime with micro batching" style="text;html=1;align=center;verticalAlign=middle;resizable=0;points=[];autosize=1;strokeColor=none;fillColor=none;" vertex="1" parent="1">
          <mxGeometry x="110" y="1110" width="200" height="30" as="geometry" />
        </mxCell>
        <mxCell id="tU78rsOKaXReI7qJYb4Z-49" value="real time" style="text;html=1;align=center;verticalAlign=middle;resizable=0;points=[];autosize=1;strokeColor=none;fillColor=none;" vertex="1" parent="1">
          <mxGeometry x="120" y="1225" width="70" height="30" as="geometry" />
        </mxCell>
        <mxCell id="tU78rsOKaXReI7qJYb4Z-50" value="Mapreduce workers" style="rounded=1;whiteSpace=wrap;html=1;" vertex="1" parent="1">
          <mxGeometry x="330" y="963" width="120" height="60" as="geometry" />
        </mxCell>
        <mxCell id="tU78rsOKaXReI7qJYb4Z-51" value="Spark" style="rounded=1;whiteSpace=wrap;html=1;" vertex="1" parent="1">
          <mxGeometry x="340" y="1100" width="120" height="60" as="geometry" />
        </mxCell>
        <mxCell id="tU78rsOKaXReI7qJYb4Z-52" value="Apache flink" style="rounded=1;whiteSpace=wrap;html=1;" vertex="1" parent="1">
          <mxGeometry x="330" y="1210" width="120" height="60" as="geometry" />
        </mxCell>
      </root>
    </mxGraphModel>
  </diagram>
</mxfile>
